<svg width="80" height="80" viewBox="0 0 80 80" fill="none" xmlns="http://www.w3.org/2000/svg">
<rect width="80" height="80" rx="40" fill="white"/>
<path d="M33.75 43.7505C33.75 41.6827 32.0677 40.0005 30 40.0005C27.9323 40.0005 26.25 41.6827 26.25 43.7505C26.25 45.8182 27.9323 47.5005 30 47.5005C32.0677 47.5005 33.75 45.8182 33.75 43.7505ZM30 45.0005C29.3108 45.0005 28.75 44.4397 28.75 43.7505C28.75 43.0612 29.3108 42.5005 30 42.5005C30.6892 42.5005 31.25 43.0612 31.25 43.7505C31.25 44.4397 30.6892 45.0005 30 45.0005Z" fill="#3B82F6"/>
<path d="M43.75 43.7505C43.75 41.6827 42.0677 40.0005 40 40.0005C37.9323 40.0005 36.25 41.6827 36.25 43.7505C36.25 45.8182 37.9323 47.5005 40 47.5005C42.0677 47.5005 43.75 45.8182 43.75 43.7505ZM40 45.0005C39.3108 45.0005 38.75 44.4397 38.75 43.7505C38.75 43.0612 39.3108 42.5005 40 42.5005C40.6892 42.5005 41.25 43.0612 41.25 43.7505C41.25 44.4397 40.6892 45.0005 40 45.0005Z" fill="#3B82F6"/>
<path d="M52.25 47.5005H50H47.5C46.5403 47.5005 45.664 47.8633 45 48.4584C44.336 47.8633 43.4597 47.5005 42.5 47.5005H40H37.5C36.5403 47.5005 35.664 47.8633 35 48.4584C34.336 47.8633 33.4597 47.5005 32.5 47.5005H30H27.75C25.6823 47.5005 24 49.1827 24 51.2505V55.0005H56V51.2505C56 49.1827 54.3177 47.5005 52.25 47.5005ZM33.75 52.5005H26.5V51.2505C26.5 50.5612 27.0608 50.0005 27.75 50.0005H32.5C33.1892 50.0005 33.75 50.5612 33.75 51.2505V52.5005ZM43.75 52.5005H36.25V51.2505C36.25 50.5612 36.8108 50.0005 37.5 50.0005H42.5C43.1893 50.0005 43.75 50.5612 43.75 51.2505V52.5005ZM53.5 52.5005H46.25V51.2505C46.25 50.5612 46.8107 50.0005 47.5 50.0005H52.25C52.9393 50.0005 53.5 50.5612 53.5 51.2505V52.5005Z" fill="#3B82F6"/>
<path d="M53.75 43.7505C53.75 41.6827 52.0677 40.0005 50 40.0005C47.9323 40.0005 46.25 41.6827 46.25 43.7505C46.25 45.8182 47.9323 47.5005 50 47.5005C52.0677 47.5005 53.75 45.8182 53.75 43.7505ZM50 45.0005C49.3108 45.0005 48.75 44.4397 48.75 43.7505C48.75 43.0612 49.3108 42.5005 50 42.5005C50.6892 42.5005 51.25 43.0612 51.25 43.7505C51.25 44.4397 50.6892 45.0005 50 45.0005Z" fill="#3B82F6"/>
<path d="M33.3849 34.634L31.6172 32.8662L30.0011 34.4823L28.3849 32.8662L26.6172 34.634L30.0011 38.0178L33.3849 34.634Z" fill="#3B82F6"/>
<path d="M53.3849 34.634L51.6172 32.8662L50.0011 34.4823L48.3849 32.8662L46.6172 34.634L50.0011 38.0178L53.3849 34.634Z" fill="#3B82F6"/>
<path d="M40.0011 36.7053L45.3044 31.402C46.7665 29.9399 46.7665 27.5608 45.3044 26.0987C43.8389 24.6332 41.4668 24.633 40.0011 26.0987C38.5395 24.6371 36.1594 24.637 34.6978 26.0987C33.2362 27.5603 33.2361 29.9404 34.6978 31.402L40.0011 36.7053ZM36.4656 27.8665C36.9501 27.382 37.7488 27.382 38.2333 27.8665L40.0011 29.6343L41.7688 27.8665C42.2562 27.3792 43.0492 27.3791 43.5366 27.8665C44.024 28.3539 44.024 29.1469 43.5366 29.6343L40.001 33.1698L36.4655 29.6343C35.9809 29.1496 35.981 28.351 36.4656 27.8665Z" fill="#3B82F6"/>
</svg>
