<svg width="80" height="80" viewBox="0 0 80 80" fill="none" xmlns="http://www.w3.org/2000/svg">
<rect width="80" height="80" rx="40" fill="#383E42"/>
<path d="M40 33.75C40.6904 33.75 41.25 33.1904 41.25 32.5C41.25 31.8096 40.6904 31.25 40 31.25C39.3096 31.25 38.75 31.8096 38.75 32.5C38.75 33.1904 39.3096 33.75 40 33.75Z" fill="white"/>
<path d="M40 41.25C40.6904 41.25 41.25 40.6904 41.25 40V37.5C41.25 36.8096 40.6904 36.25 40 36.25C39.3096 36.25 38.75 36.8096 38.75 37.5V40C38.75 40.6904 39.3096 41.25 40 41.25Z" fill="white"/>
<path d="M38.75 48.5H47.5C49.5677 48.5 51.25 46.8177 51.25 44.75V27.75C51.25 25.6823 49.5677 24 47.5 24H32.5C30.4323 24 28.75 25.6823 28.75 27.75V44.75C28.75 46.8177 30.4323 48.5 32.5 48.5H36.25V53.5H32.5C31.8096 53.5 31.25 54.0596 31.25 54.75C31.25 55.4404 31.8096 56 32.5 56H47.5C48.1904 56 48.75 55.4404 48.75 54.75C48.75 54.0596 48.1904 53.5 47.5 53.5H43.75V52.25C43.75 51.5596 43.1904 51 42.5 51C41.8096 51 41.25 51.5596 41.25 52.25V53.5H38.75V48.5ZM31.25 44.75V27.75C31.25 27.0608 31.8108 26.5 32.5 26.5H47.5C48.1893 26.5 48.75 27.0608 48.75 27.75V44.75C48.75 45.4393 48.1893 46 47.5 46H32.5C31.8108 46 31.25 45.4393 31.25 44.75Z" fill="white"/>
</svg>
