<svg width="80" height="80" viewBox="0 0 80 80" fill="none" xmlns="http://www.w3.org/2000/svg">
<rect width="80" height="80" rx="40" fill="#383E42"/>
<path d="M54.125 25.5625H25.875C24.8411 25.5625 24 26.4036 24 27.4375V46.0625C24 47.0964 24.8411 47.9375 25.875 47.9375H35.0625V52.5625H30C29.4823 52.5625 29.0625 52.9823 29.0625 53.5C29.0625 54.0177 29.4823 54.4375 30 54.4375H50C50.5177 54.4375 50.9375 54.0177 50.9375 53.5C50.9375 52.9823 50.5177 52.5625 50 52.5625H44.9375V47.9375H54.125C55.1589 47.9375 56 47.0964 56 46.0625V27.4375C56 26.4036 55.1589 25.5625 54.125 25.5625ZM43.0625 52.5625H36.9375V47.9375H43.0625V52.5625ZM54.125 46.0625C53.3027 46.0625 26.534 46.0625 25.875 46.0625V27.4375H54.125C54.1262 46.467 54.1313 46.0625 54.125 46.0625Z" fill="white"/>
</svg>
