<svg width="80" height="80" viewBox="0 0 80 80" fill="none" xmlns="http://www.w3.org/2000/svg">
<rect width="80" height="80" rx="40" fill="white"/>
<path d="M46.7299 24H33.2662C31.9777 24 30.9375 25.0448 30.9375 26.331V53.6713C30.9375 54.9563 31.9777 56 33.2662 56H46.7299C48.0161 56 49.0586 54.9563 49.0586 53.6713V26.331C49.0586 25.0448 48.0161 24 46.7299 24ZM36.6759 25.4156H43.3226C43.4905 25.4156 43.627 25.6664 43.627 25.9765C43.627 26.2867 43.4905 26.5386 43.3226 26.5386H36.6759C36.5068 26.5386 36.3727 26.2867 36.3727 25.9765C36.3727 25.6664 36.5068 25.4156 36.6759 25.4156ZM39.9992 53.6993C39.1795 53.6993 38.5125 53.0323 38.5125 52.2114C38.5125 51.3904 39.1795 50.7257 39.9992 50.7257C40.8167 50.7257 41.4837 51.3904 41.4837 52.2114C41.4837 53.0323 40.8167 53.6993 39.9992 53.6993ZM47.3142 48.6046H32.6831V27.9332H47.3142V48.6046Z" fill="#3B82F6"/>
</svg>
