<svg width="80" height="80" viewBox="0 0 80 80" fill="none" xmlns="http://www.w3.org/2000/svg">
<rect width="80" height="80" rx="40" fill="#383E42"/>
<g clip-path="url(#clip0_4005_4090)">
<path d="M39.2148 32.2625V42.0405H45.447V40.3213H40.9341V32.2625H39.2148Z" fill="white"/>
<path d="M55.9974 40.1032C55.9974 31.9099 49.3224 25.2458 41.1291 25.2458C33.7801 25.2458 27.6635 30.6509 26.4802 37.6352H24.0938L28.2093 44.7269L32.4455 37.6352H29.9785C31.1074 32.4775 35.6837 28.6843 41.1371 28.6843C47.4343 28.6843 52.5589 33.8068 52.5589 40.104C52.5589 45.5455 48.6673 50.1088 43.6171 51.2489V54.7541C50.6014 53.5707 55.9974 47.452 55.9974 40.1032Z" fill="white"/>
<path d="M26.6205 53.1997L27.7138 52.0374C28.4242 51.2643 28.9116 50.6857 29.1762 50.2936C29.4407 49.9014 29.573 49.4522 29.573 48.9416C29.573 48.1831 29.3241 47.5869 28.8265 47.1501C28.3289 46.7137 27.6362 46.4956 26.7482 46.4956C25.9119 46.4956 25.2404 46.7561 24.7336 47.2757C24.2266 47.7955 23.9824 48.4441 24.001 49.1914L24.0122 49.2398H25.8436C25.8436 48.81 25.924 48.5507 26.085 48.3121C26.246 48.0732 26.467 47.9466 26.7483 47.9466C27.0627 47.9466 27.2986 48.0354 27.4558 48.2205C27.6131 48.4054 27.6916 48.6514 27.6916 48.9624C27.6916 49.1806 27.6139 49.4368 27.4585 49.7327C27.3032 50.0288 27.0791 50.3649 26.7501 50.7425L24.1711 53.4725V54.7199H29.7585V53.2156H26.6372L26.6205 53.1997Z" fill="white"/>
<path d="M34.9161 46.6611H33.0895V46.6296L29.8281 51.8497L29.9188 53.0007H33.0895V54.72H34.9161V53.0007H35.7758V51.6039H34.9161V46.6611ZM33.0895 51.6039H31.4839L32.8715 49.2953L33.036 49.0526L33.0895 49.0494V51.6039Z" fill="white"/>
<path d="M41.8999 54.7197V51.2412C41.8999 50.9827 41.9063 50.7456 41.8778 50.5256C41.8053 49.9712 41.655 49.5367 41.4009 49.2267C41.0456 48.7938 40.5629 48.5774 39.9413 48.5774C39.6268 48.5774 39.3623 48.6523 39.1014 48.8022C38.8406 48.9521 38.5689 49.1622 38.4615 49.4322V46.5535H36.5273V54.7197H38.4615V50.3255C38.4615 50.2294 38.6408 50.1545 38.7741 50.1007C38.9072 50.0472 39.0543 50.0204 39.2355 50.0204C39.5205 50.0204 39.7294 50.1073 39.8681 50.2811C40.0069 50.455 40.0732 50.7713 40.0732 51.2303V54.7197H40.7265H41.8999Z" fill="white"/>
</g>
<defs>
<clipPath id="clip0_4005_4090">
<rect width="32" height="32" fill="white" transform="translate(24 24)"/>
</clipPath>
</defs>
</svg>
