<svg width="80" height="80" viewBox="0 0 80 80" fill="none" xmlns="http://www.w3.org/2000/svg">
<rect width="80" height="80" rx="40" fill="#383E42"/>
<g clip-path="url(#clip0_4005_4116)">
<path d="M39.9976 30.0625C34.7736 30.0625 30.5234 34.3126 30.5234 39.5367C30.5234 42.8364 32.2312 45.8748 35.0164 47.597V52.25H36.5141V52.5165C36.5141 54.4373 38.0768 56 39.9976 56C41.9184 56 43.4811 54.4373 43.4811 52.5165V52.25H44.9788V47.597C47.764 45.8748 49.4718 42.8364 49.4718 39.5367C49.4718 34.3126 45.2217 30.0625 39.9976 30.0625ZM43.1038 48.3139V50.375H36.8914V48.3139H43.1038ZM41.6061 52.5165C41.6061 53.4034 40.8846 54.125 39.9976 54.125C39.1107 54.125 38.3891 53.4034 38.3891 52.5165V52.25H41.6062V52.5165H41.6061ZM43.5966 46.2312L43.2111 46.4389H36.7842L36.3987 46.2312C33.9313 44.9016 32.3985 42.3364 32.3985 39.5367C32.3984 35.3464 35.8074 31.9375 39.9976 31.9375C44.1878 31.9375 47.5968 35.3464 47.5968 39.5367C47.5968 42.3364 46.064 44.9016 43.5966 46.2312Z" fill="white"/>
<path d="M39.0625 24H40.9375V28.0625H39.0625V24Z" fill="white"/>
<path d="M47.4453 30.7615L50.3175 27.8893L51.6431 29.2149L48.7709 32.0871L47.4453 30.7615Z" fill="white"/>
<path d="M51.4688 38.5957H55.5312V40.4707H51.4688V38.5957Z" fill="white"/>
<path d="M47.4414 48.3076L48.767 46.982L51.6392 49.8542L50.3136 51.1798L47.4414 48.3076Z" fill="white"/>
<path d="M28.3477 49.8525L31.2198 46.9804L32.5455 48.306L29.6733 51.1782L28.3477 49.8525Z" fill="white"/>
<path d="M24.4648 38.5959H28.5273V40.4709H24.4648V38.5959Z" fill="white"/>
<path d="M28.3516 29.2129L29.6772 27.8873L32.5494 30.7595L31.2237 32.0851L28.3516 29.2129Z" fill="white"/>
<path d="M38.8175 40.008L37.4899 38.6804L36.1641 40.0063L38.8175 42.6596L43.8321 37.6451L42.5063 36.3193L38.8175 40.008Z" fill="white"/>
</g>
<defs>
<clipPath id="clip0_4005_4116">
<rect width="32" height="32" fill="white" transform="translate(24 24)"/>
</clipPath>
</defs>
</svg>
