<svg width="47" height="48" viewBox="0 0 47 48" fill="none" xmlns="http://www.w3.org/2000/svg">
<path d="M45.7651 38.3651L29.3466 3.84517C26.911 -1.27548 19.6263 -1.28347 17.1798 3.83169L0.667978 38.3516C-1.47161 42.8255 1.78893 48 6.74837 48H6.81774C9.44295 48 11.8291 46.4758 12.9331 44.0941L13.4596 42.9577C14.5636 40.5761 16.9497 39.0519 19.5749 39.0519H26.926C29.5587 39.0519 31.9503 40.5846 33.0498 42.9762L33.5549 44.0752C34.6544 46.4668 37.046 47.9995 39.6787 47.9995C44.6307 48 47.8922 42.8374 45.7651 38.3651ZM29.1924 33.3767C29.0931 33.3228 28.9967 33.2644 28.9039 33.2015C28.6244 33.0129 28.3744 32.7853 28.1603 32.5258C28.0175 32.3531 27.8912 32.1664 27.7834 31.9678C27.7161 31.844 27.6562 31.7153 27.6038 31.583C27.4471 31.1857 27.3612 30.753 27.3612 30.2998C27.3612 29.8467 27.4471 29.414 27.6038 29.0167C27.6562 28.8844 27.7161 28.7557 27.7834 28.6319C27.8912 28.4338 28.0175 28.2466 28.1603 28.0739L28.1618 28.0724C28.3754 27.8139 28.6254 27.5863 28.9039 27.3981C28.9967 27.3353 29.0931 27.2769 29.1924 27.223C29.2243 27.2055 29.2588 27.1915 29.2917 27.1751C29.4609 27.0897 29.6361 27.0148 29.8197 26.9579C30.1486 26.8556 30.498 26.8007 30.8603 26.8007C31.2227 26.8007 31.572 26.8556 31.9009 26.9579C32.12 27.0258 32.3296 27.1152 32.5283 27.223C32.6276 27.2769 32.7239 27.3353 32.8168 27.3981C33.0957 27.5868 33.3463 27.8149 33.5604 28.0739C33.7031 28.2466 33.8294 28.4333 33.9372 28.6319C34.0046 28.7557 34.0645 28.8844 34.1169 29.0167C34.2736 29.414 34.3594 29.8467 34.3594 30.2998C34.3594 30.753 34.2736 31.1857 34.1169 31.583C34.0645 31.7153 34.0046 31.844 33.9372 31.9678C33.8294 32.1659 33.7031 32.3531 33.5604 32.5258C33.3463 32.7853 33.0957 33.0129 32.8168 33.2015C32.7234 33.2644 32.6276 33.3228 32.5283 33.3767C32.3301 33.4845 32.12 33.5734 31.9009 33.6417C31.572 33.744 31.2227 33.799 30.8603 33.799C30.498 33.799 30.1486 33.744 29.8197 33.6417C29.6006 33.5739 29.391 33.4845 29.1924 33.3767ZM20.1289 30.3003C20.1289 32.2328 18.5623 33.7995 16.6298 33.7995C16.0259 33.7995 15.458 33.6462 14.9619 33.3772C14.7637 33.2694 14.5766 33.1431 14.4039 33.0004C14.3175 32.929 14.2347 32.8537 14.1553 32.7748C13.9971 32.6166 13.8539 32.4429 13.7281 32.2568C13.6023 32.0706 13.494 31.8715 13.4057 31.6624C13.2285 31.2436 13.1307 30.7835 13.1307 30.3003C13.1307 29.8172 13.2285 29.3571 13.4057 28.9383C13.494 28.7292 13.6023 28.5301 13.7281 28.3439C13.8539 28.1578 13.9971 27.9846 14.1553 27.8259C14.2342 27.7465 14.3175 27.6711 14.4039 27.5998C14.5766 27.457 14.7632 27.3308 14.9619 27.223C15.4575 26.9535 16.0259 26.8007 16.6298 26.8007C17.0211 26.8007 17.3964 26.8676 17.7478 26.9864C18.2054 27.1406 18.6192 27.3872 18.97 27.7041C19.6802 28.3444 20.1289 29.2687 20.1289 30.3003ZM23.4713 13.3214C22.6154 13.3214 21.9192 14.0181 21.9192 14.8735V21.9566L19.9572 25.7801C19.5784 25.5001 19.1652 25.2655 18.722 25.0874L20.5042 21.6147V14.8735C20.5042 13.2375 21.8353 11.9069 23.4713 11.9069C25.1073 11.9069 26.4384 13.2375 26.4384 14.8735V21.6147L28.3245 25.2905C27.8967 25.5081 27.502 25.7781 27.1456 26.093L25.0235 21.9571V14.874C25.0235 14.0176 24.3273 13.3214 23.4713 13.3214Z" fill="white"/>
</svg>
